<mxfile host="app.diagrams.net" modified="2020-12-15T11:02:52.765Z" agent="5.0 (Macintosh; Intel Mac OS X 10_15_6) AppleWebKit/537.36 (KHTML, like Gecko) Chrome/87.0.4280.88 Safari/537.36" etag="BkkE6DJiatc0T39McRsx" version="14.0.1" type="github">
  <diagram id="RxMEeWCy8G6CTXu-9YJE" name="Page-1">
    <mxGraphModel dx="2200" dy="867" grid="1" gridSize="10" guides="1" tooltips="1" connect="1" arrows="1" fold="1" page="1" pageScale="1" pageWidth="827" pageHeight="1169" math="0" shadow="0">
      <root>
        <mxCell id="0" />
        <mxCell id="1" parent="0" />
        <mxCell id="I1D86H4Sef8vusSO4HLG-9" style="edgeStyle=orthogonalEdgeStyle;rounded=0;orthogonalLoop=1;jettySize=auto;html=1;exitX=0.25;exitY=1;exitDx=0;exitDy=0;entryX=0.5;entryY=0;entryDx=0;entryDy=0;" parent="1" source="PSYIGVpPT2Qj7c6pXOUl-4" target="I1D86H4Sef8vusSO4HLG-6" edge="1">
          <mxGeometry relative="1" as="geometry" />
        </mxCell>
        <mxCell id="I1D86H4Sef8vusSO4HLG-10" value="If feature branch pushed" style="edgeLabel;html=1;align=center;verticalAlign=middle;resizable=0;points=[];" parent="I1D86H4Sef8vusSO4HLG-9" vertex="1" connectable="0">
          <mxGeometry x="-0.0839" y="-3" relative="1" as="geometry">
            <mxPoint x="7" y="-4" as="offset" />
          </mxGeometry>
        </mxCell>
        <mxCell id="I1D86H4Sef8vusSO4HLG-17" value="&lt;span style=&quot;color: rgb(0 , 0 , 0) ; font-family: &amp;#34;helvetica&amp;#34; ; font-size: 11px ; font-style: normal ; font-weight: 400 ; letter-spacing: normal ; text-align: center ; text-indent: 0px ; text-transform: none ; word-spacing: 0px ; background-color: rgb(255 , 255 , 255) ; display: inline ; float: none&quot;&gt;If merged to stage&lt;/span&gt;" style="edgeStyle=orthogonalEdgeStyle;rounded=0;orthogonalLoop=1;jettySize=auto;html=1;exitX=0.75;exitY=1;exitDx=0;exitDy=0;entryX=0.5;entryY=0;entryDx=0;entryDy=0;" parent="1" target="I1D86H4Sef8vusSO4HLG-14" edge="1">
          <mxGeometry x="-0.1429" y="5" relative="1" as="geometry">
            <mxPoint x="-300" y="230" as="sourcePoint" />
            <mxPoint as="offset" />
          </mxGeometry>
        </mxCell>
        <mxCell id="PSYIGVpPT2Qj7c6pXOUl-4" value="cicd repo" style="rounded=0;whiteSpace=wrap;html=1;verticalAlign=top;fillColor=#f5f5f5;strokeColor=#666666;fontColor=#333333;" parent="1" vertex="1">
          <mxGeometry x="-470" width="240" height="230" as="geometry" />
        </mxCell>
        <mxCell id="PSYIGVpPT2Qj7c6pXOUl-6" value="feature-values-infra.yaml.tpl" style="rounded=0;whiteSpace=wrap;html=1;" parent="1" vertex="1">
          <mxGeometry x="-458.75" y="30" width="220" height="30" as="geometry" />
        </mxCell>
        <mxCell id="PSYIGVpPT2Qj7c6pXOUl-30" style="edgeStyle=orthogonalEdgeStyle;rounded=0;orthogonalLoop=1;jettySize=auto;html=1;exitX=0.5;exitY=1;exitDx=0;exitDy=0;entryX=0.5;entryY=0;entryDx=0;entryDy=0;" parent="1" source="PSYIGVpPT2Qj7c6pXOUl-10" target="PSYIGVpPT2Qj7c6pXOUl-29" edge="1">
          <mxGeometry relative="1" as="geometry" />
        </mxCell>
        <mxCell id="I1D86H4Sef8vusSO4HLG-1" value="Every push" style="edgeLabel;html=1;align=center;verticalAlign=middle;resizable=0;points=[];" parent="PSYIGVpPT2Qj7c6pXOUl-30" vertex="1" connectable="0">
          <mxGeometry x="-0.2794" y="-1" relative="1" as="geometry">
            <mxPoint as="offset" />
          </mxGeometry>
        </mxCell>
        <mxCell id="PSYIGVpPT2Qj7c6pXOUl-10" value="Service repos" style="rounded=0;whiteSpace=wrap;html=1;verticalAlign=top;fillColor=#f5f5f5;strokeColor=#666666;fontColor=#333333;" parent="1" vertex="1">
          <mxGeometry x="142" y="220" width="240" height="30" as="geometry" />
        </mxCell>
        <mxCell id="PSYIGVpPT2Qj7c6pXOUl-74" style="edgeStyle=orthogonalEdgeStyle;rounded=0;orthogonalLoop=1;jettySize=auto;html=1;exitX=1;exitY=0.5;exitDx=0;exitDy=0;dashed=1;fillColor=#fff2cc;strokeColor=#d6b656;" parent="1" source="PSYIGVpPT2Qj7c6pXOUl-11" target="PSYIGVpPT2Qj7c6pXOUl-36" edge="1">
          <mxGeometry relative="1" as="geometry">
            <Array as="points">
              <mxPoint x="477" y="205" />
            </Array>
          </mxGeometry>
        </mxCell>
        <mxCell id="PSYIGVpPT2Qj7c6pXOUl-75" value="If branch is feature then get feature else stage" style="edgeLabel;html=1;align=center;verticalAlign=middle;resizable=0;points=[];" parent="PSYIGVpPT2Qj7c6pXOUl-74" vertex="1" connectable="0">
          <mxGeometry x="-0.3474" y="2" relative="1" as="geometry">
            <mxPoint x="-104" y="2" as="offset" />
          </mxGeometry>
        </mxCell>
        <mxCell id="I1D86H4Sef8vusSO4HLG-41" style="edgeStyle=orthogonalEdgeStyle;rounded=0;orthogonalLoop=1;jettySize=auto;html=1;exitX=0;exitY=0.5;exitDx=0;exitDy=0;entryX=0;entryY=0.5;entryDx=0;entryDy=0;dashed=1;fillColor=#fff2cc;strokeColor=#d6b656;" parent="1" source="PSYIGVpPT2Qj7c6pXOUl-11" target="I1D86H4Sef8vusSO4HLG-33" edge="1">
          <mxGeometry relative="1" as="geometry">
            <Array as="points">
              <mxPoint x="-660" y="205" />
              <mxPoint x="-660" y="495" />
            </Array>
          </mxGeometry>
        </mxCell>
        <mxCell id="PSYIGVpPT2Qj7c6pXOUl-11" value="values.yaml.tpl" style="rounded=0;whiteSpace=wrap;html=1;" parent="1" vertex="1">
          <mxGeometry x="-460" y="190" width="220" height="30" as="geometry" />
        </mxCell>
        <mxCell id="I1D86H4Sef8vusSO4HLG-37" style="edgeStyle=orthogonalEdgeStyle;rounded=0;orthogonalLoop=1;jettySize=auto;html=1;exitX=1;exitY=0.5;exitDx=0;exitDy=0;entryX=0;entryY=0.5;entryDx=0;entryDy=0;dashed=1;fillColor=#f8cecc;strokeColor=#b85450;" parent="1" source="PSYIGVpPT2Qj7c6pXOUl-12" target="PSYIGVpPT2Qj7c6pXOUl-49" edge="1">
          <mxGeometry relative="1" as="geometry">
            <Array as="points">
              <mxPoint x="-50" y="125" />
              <mxPoint x="-50" y="735" />
            </Array>
          </mxGeometry>
        </mxCell>
        <mxCell id="I1D86H4Sef8vusSO4HLG-39" style="edgeStyle=orthogonalEdgeStyle;rounded=0;orthogonalLoop=1;jettySize=auto;html=1;exitX=0;exitY=0.5;exitDx=0;exitDy=0;entryX=0;entryY=0.5;entryDx=0;entryDy=0;dashed=1;fillColor=#f8cecc;strokeColor=#b85450;" parent="1" source="PSYIGVpPT2Qj7c6pXOUl-12" target="I1D86H4Sef8vusSO4HLG-30" edge="1">
          <mxGeometry relative="1" as="geometry">
            <Array as="points">
              <mxPoint x="-680" y="125" />
              <mxPoint x="-680" y="795" />
            </Array>
          </mxGeometry>
        </mxCell>
        <mxCell id="PSYIGVpPT2Qj7c6pXOUl-12" value="values-prod.yaml.tpl" style="rounded=0;whiteSpace=wrap;html=1;" parent="1" vertex="1">
          <mxGeometry x="-458.75" y="110" width="220" height="30" as="geometry" />
        </mxCell>
        <mxCell id="I1D86H4Sef8vusSO4HLG-35" style="edgeStyle=orthogonalEdgeStyle;rounded=0;orthogonalLoop=1;jettySize=auto;html=1;exitX=1;exitY=0.5;exitDx=0;exitDy=0;entryX=0;entryY=0.5;entryDx=0;entryDy=0;dashed=1;fillColor=#dae8fc;strokeColor=#6c8ebf;" parent="1" source="PSYIGVpPT2Qj7c6pXOUl-13" target="PSYIGVpPT2Qj7c6pXOUl-31" edge="1">
          <mxGeometry relative="1" as="geometry">
            <Array as="points">
              <mxPoint x="-30" y="165" />
              <mxPoint x="-30" y="575" />
            </Array>
          </mxGeometry>
        </mxCell>
        <mxCell id="I1D86H4Sef8vusSO4HLG-36" value="From branch stage" style="edgeLabel;html=1;align=center;verticalAlign=middle;resizable=0;points=[];" parent="I1D86H4Sef8vusSO4HLG-35" vertex="1" connectable="0">
          <mxGeometry x="-0.7093" relative="1" as="geometry">
            <mxPoint as="offset" />
          </mxGeometry>
        </mxCell>
        <mxCell id="I1D86H4Sef8vusSO4HLG-40" style="edgeStyle=orthogonalEdgeStyle;rounded=0;orthogonalLoop=1;jettySize=auto;html=1;exitX=0;exitY=0.5;exitDx=0;exitDy=0;entryX=0;entryY=0.5;entryDx=0;entryDy=0;dashed=1;fillColor=#dae8fc;strokeColor=#6c8ebf;" parent="1" source="PSYIGVpPT2Qj7c6pXOUl-13" target="I1D86H4Sef8vusSO4HLG-26" edge="1">
          <mxGeometry relative="1" as="geometry">
            <Array as="points">
              <mxPoint x="-670" y="165" />
              <mxPoint x="-670" y="575" />
            </Array>
          </mxGeometry>
        </mxCell>
        <mxCell id="PSYIGVpPT2Qj7c6pXOUl-13" value="values-stage.yaml.tpl" style="rounded=0;whiteSpace=wrap;html=1;" parent="1" vertex="1">
          <mxGeometry x="-458.75" y="150" width="220" height="30" as="geometry" />
        </mxCell>
        <mxCell id="PSYIGVpPT2Qj7c6pXOUl-26" style="edgeStyle=orthogonalEdgeStyle;rounded=0;orthogonalLoop=1;jettySize=auto;html=1;exitX=0.5;exitY=1;exitDx=0;exitDy=0;entryX=0.5;entryY=0;entryDx=0;entryDy=0;" parent="1" edge="1">
          <mxGeometry relative="1" as="geometry">
            <mxPoint x="655" y="330" as="targetPoint" />
          </mxGeometry>
        </mxCell>
        <mxCell id="PSYIGVpPT2Qj7c6pXOUl-25" style="edgeStyle=orthogonalEdgeStyle;rounded=0;orthogonalLoop=1;jettySize=auto;html=1;exitX=0.5;exitY=1;exitDx=0;exitDy=0;entryX=0.5;entryY=0;entryDx=0;entryDy=0;" parent="1" edge="1">
          <mxGeometry relative="1" as="geometry">
            <mxPoint x="655" y="380" as="targetPoint" />
          </mxGeometry>
        </mxCell>
        <mxCell id="PSYIGVpPT2Qj7c6pXOUl-24" style="edgeStyle=orthogonalEdgeStyle;rounded=0;orthogonalLoop=1;jettySize=auto;html=1;exitX=0.5;exitY=1;exitDx=0;exitDy=0;entryX=0.5;entryY=0;entryDx=0;entryDy=0;" parent="1" edge="1">
          <mxGeometry relative="1" as="geometry">
            <mxPoint x="655" y="430" as="targetPoint" />
          </mxGeometry>
        </mxCell>
        <mxCell id="PSYIGVpPT2Qj7c6pXOUl-35" style="edgeStyle=orthogonalEdgeStyle;rounded=0;orthogonalLoop=1;jettySize=auto;html=1;exitX=0.5;exitY=1;exitDx=0;exitDy=0;" parent="1" source="PSYIGVpPT2Qj7c6pXOUl-29" target="PSYIGVpPT2Qj7c6pXOUl-34" edge="1">
          <mxGeometry relative="1" as="geometry" />
        </mxCell>
        <mxCell id="PSYIGVpPT2Qj7c6pXOUl-29" value="Test" style="rounded=0;whiteSpace=wrap;html=1;" parent="1" vertex="1">
          <mxGeometry x="157" y="280" width="210" height="30" as="geometry" />
        </mxCell>
        <mxCell id="PSYIGVpPT2Qj7c6pXOUl-64" style="edgeStyle=orthogonalEdgeStyle;rounded=0;orthogonalLoop=1;jettySize=auto;html=1;exitX=0.5;exitY=1;exitDx=0;exitDy=0;entryX=0.5;entryY=0;entryDx=0;entryDy=0;" parent="1" source="PSYIGVpPT2Qj7c6pXOUl-31" target="PSYIGVpPT2Qj7c6pXOUl-32" edge="1">
          <mxGeometry relative="1" as="geometry" />
        </mxCell>
        <mxCell id="PSYIGVpPT2Qj7c6pXOUl-31" value="Deploy to Stage" style="rounded=0;whiteSpace=wrap;html=1;fillColor=#cce5ff;strokeColor=#36393d;" parent="1" vertex="1">
          <mxGeometry x="55" y="560" width="210" height="30" as="geometry" />
        </mxCell>
        <mxCell id="PSYIGVpPT2Qj7c6pXOUl-50" style="edgeStyle=orthogonalEdgeStyle;rounded=0;orthogonalLoop=1;jettySize=auto;html=1;exitX=0.5;exitY=1;exitDx=0;exitDy=0;entryX=0.5;entryY=0;entryDx=0;entryDy=0;" parent="1" source="PSYIGVpPT2Qj7c6pXOUl-62" target="PSYIGVpPT2Qj7c6pXOUl-49" edge="1">
          <mxGeometry relative="1" as="geometry" />
        </mxCell>
        <mxCell id="PSYIGVpPT2Qj7c6pXOUl-63" style="edgeStyle=orthogonalEdgeStyle;rounded=0;orthogonalLoop=1;jettySize=auto;html=1;exitX=0.5;exitY=1;exitDx=0;exitDy=0;entryX=0.5;entryY=0;entryDx=0;entryDy=0;" parent="1" source="PSYIGVpPT2Qj7c6pXOUl-32" target="PSYIGVpPT2Qj7c6pXOUl-62" edge="1">
          <mxGeometry relative="1" as="geometry" />
        </mxCell>
        <mxCell id="PSYIGVpPT2Qj7c6pXOUl-32" value="Approve deploy prod" style="rounded=0;whiteSpace=wrap;html=1;" parent="1" vertex="1">
          <mxGeometry x="55" y="615" width="210" height="30" as="geometry" />
        </mxCell>
        <mxCell id="PSYIGVpPT2Qj7c6pXOUl-41" style="edgeStyle=orthogonalEdgeStyle;rounded=0;orthogonalLoop=1;jettySize=auto;html=1;exitX=0.75;exitY=1;exitDx=0;exitDy=0;entryX=0.25;entryY=0;entryDx=0;entryDy=0;" parent="1" source="PSYIGVpPT2Qj7c6pXOUl-34" target="PSYIGVpPT2Qj7c6pXOUl-36" edge="1">
          <mxGeometry relative="1" as="geometry">
            <Array as="points">
              <mxPoint x="342" y="360" />
              <mxPoint x="342" y="410" />
              <mxPoint x="425" y="410" />
            </Array>
          </mxGeometry>
        </mxCell>
        <mxCell id="PSYIGVpPT2Qj7c6pXOUl-42" value="If branch=Feature" style="edgeLabel;html=1;align=center;verticalAlign=middle;resizable=0;points=[];" parent="PSYIGVpPT2Qj7c6pXOUl-41" vertex="1" connectable="0">
          <mxGeometry x="-0.2408" y="3" relative="1" as="geometry">
            <mxPoint x="4.5" y="-12" as="offset" />
          </mxGeometry>
        </mxCell>
        <mxCell id="PSYIGVpPT2Qj7c6pXOUl-57" style="edgeStyle=orthogonalEdgeStyle;rounded=0;orthogonalLoop=1;jettySize=auto;html=1;exitX=0.5;exitY=1;exitDx=0;exitDy=0;entryX=0.5;entryY=0;entryDx=0;entryDy=0;" parent="1" source="PSYIGVpPT2Qj7c6pXOUl-34" target="M2VELBqO5IjSqYguNmJB-4" edge="1">
          <mxGeometry relative="1" as="geometry">
            <mxPoint x="300" y="400" as="targetPoint" />
          </mxGeometry>
        </mxCell>
        <mxCell id="PSYIGVpPT2Qj7c6pXOUl-58" value="If feature merged" style="edgeLabel;html=1;align=center;verticalAlign=middle;resizable=0;points=[];" parent="PSYIGVpPT2Qj7c6pXOUl-57" vertex="1" connectable="0">
          <mxGeometry x="0.0545" y="2" relative="1" as="geometry">
            <mxPoint x="-7" y="-2" as="offset" />
          </mxGeometry>
        </mxCell>
        <mxCell id="PSYIGVpPT2Qj7c6pXOUl-60" value="" style="edgeStyle=orthogonalEdgeStyle;rounded=0;orthogonalLoop=1;jettySize=auto;html=1;exitX=0;exitY=0.5;exitDx=0;exitDy=0;entryX=0.25;entryY=0;entryDx=0;entryDy=0;" parent="1" source="PSYIGVpPT2Qj7c6pXOUl-34" target="M2VELBqO5IjSqYguNmJB-4" edge="1">
          <mxGeometry x="-0.227" y="23" relative="1" as="geometry">
            <mxPoint y="1" as="offset" />
          </mxGeometry>
        </mxCell>
        <mxCell id="PSYIGVpPT2Qj7c6pXOUl-67" value="&lt;span style=&quot;font-family: &amp;#34;helvetica&amp;#34;&quot;&gt;If branch=hotfix&lt;/span&gt;" style="edgeLabel;html=1;align=center;verticalAlign=middle;resizable=0;points=[];" parent="PSYIGVpPT2Qj7c6pXOUl-60" vertex="1" connectable="0">
          <mxGeometry x="-0.0406" y="1" relative="1" as="geometry">
            <mxPoint x="-22.29" y="37.7" as="offset" />
          </mxGeometry>
        </mxCell>
        <mxCell id="PSYIGVpPT2Qj7c6pXOUl-34" value="Build" style="rounded=0;whiteSpace=wrap;html=1;" parent="1" vertex="1">
          <mxGeometry x="157" y="330" width="210" height="30" as="geometry" />
        </mxCell>
        <mxCell id="PSYIGVpPT2Qj7c6pXOUl-36" value="Deploy to feature ns on DEV" style="rounded=0;whiteSpace=wrap;html=1;fillColor=#ffff88;strokeColor=#36393d;" parent="1" vertex="1">
          <mxGeometry x="372" y="480" width="210" height="30" as="geometry" />
        </mxCell>
        <mxCell id="PSYIGVpPT2Qj7c6pXOUl-49" value="Deploy Prod" style="rounded=0;whiteSpace=wrap;html=1;fillColor=#ffcccc;strokeColor=#36393d;" parent="1" vertex="1">
          <mxGeometry x="55" y="720" width="210" height="30" as="geometry" />
        </mxCell>
        <mxCell id="M2VELBqO5IjSqYguNmJB-7" style="edgeStyle=orthogonalEdgeStyle;rounded=0;orthogonalLoop=1;jettySize=auto;html=1;exitX=0.5;exitY=1;exitDx=0;exitDy=0;entryX=0.5;entryY=0;entryDx=0;entryDy=0;" edge="1" parent="1" source="PSYIGVpPT2Qj7c6pXOUl-52" target="PSYIGVpPT2Qj7c6pXOUl-31">
          <mxGeometry relative="1" as="geometry" />
        </mxCell>
        <mxCell id="PSYIGVpPT2Qj7c6pXOUl-52" value="Push latest tag" style="rounded=0;whiteSpace=wrap;html=1;" parent="1" vertex="1">
          <mxGeometry x="60" y="500" width="208" height="30" as="geometry" />
        </mxCell>
        <mxCell id="PSYIGVpPT2Qj7c6pXOUl-62" value="Create tag vX.X.X" style="rounded=0;whiteSpace=wrap;html=1;" parent="1" vertex="1">
          <mxGeometry x="55" y="670" width="210" height="30" as="geometry" />
        </mxCell>
        <mxCell id="PSYIGVpPT2Qj7c6pXOUl-70" value="__feature-ns-service-list.json" style="rounded=0;whiteSpace=wrap;html=1;fillColor=#f8cecc;strokeColor=#b85450;" parent="1" vertex="1">
          <mxGeometry x="-458.75" y="70" width="220" height="30" as="geometry" />
        </mxCell>
        <mxCell id="I1D86H4Sef8vusSO4HLG-11" style="edgeStyle=orthogonalEdgeStyle;rounded=0;orthogonalLoop=1;jettySize=auto;html=1;exitX=0.5;exitY=1;exitDx=0;exitDy=0;entryX=0.5;entryY=0;entryDx=0;entryDy=0;" parent="1" source="I1D86H4Sef8vusSO4HLG-6" target="I1D86H4Sef8vusSO4HLG-7" edge="1">
          <mxGeometry relative="1" as="geometry" />
        </mxCell>
        <mxCell id="I1D86H4Sef8vusSO4HLG-6" value="Create feature namespace" style="rounded=0;whiteSpace=wrap;html=1;" parent="1" vertex="1">
          <mxGeometry x="-623" y="300" width="210" height="30" as="geometry" />
        </mxCell>
        <mxCell id="I1D86H4Sef8vusSO4HLG-12" style="edgeStyle=orthogonalEdgeStyle;rounded=0;orthogonalLoop=1;jettySize=auto;html=1;exitX=0.5;exitY=1;exitDx=0;exitDy=0;entryX=0.5;entryY=0;entryDx=0;entryDy=0;" parent="1" source="I1D86H4Sef8vusSO4HLG-7" target="I1D86H4Sef8vusSO4HLG-8" edge="1">
          <mxGeometry relative="1" as="geometry" />
        </mxCell>
        <mxCell id="I1D86H4Sef8vusSO4HLG-7" value="Create secrets from dev" style="rounded=0;whiteSpace=wrap;html=1;" parent="1" vertex="1">
          <mxGeometry x="-623" y="350" width="210" height="30" as="geometry" />
        </mxCell>
        <mxCell id="I1D86H4Sef8vusSO4HLG-34" style="edgeStyle=orthogonalEdgeStyle;rounded=0;orthogonalLoop=1;jettySize=auto;html=1;exitX=0.5;exitY=1;exitDx=0;exitDy=0;entryX=0.5;entryY=0;entryDx=0;entryDy=0;" parent="1" source="I1D86H4Sef8vusSO4HLG-8" target="I1D86H4Sef8vusSO4HLG-33" edge="1">
          <mxGeometry relative="1" as="geometry" />
        </mxCell>
        <mxCell id="I1D86H4Sef8vusSO4HLG-8" value="Deploy infra&lt;br&gt;" style="rounded=0;whiteSpace=wrap;html=1;" parent="1" vertex="1">
          <mxGeometry x="-623" y="400" width="210" height="30" as="geometry" />
        </mxCell>
        <mxCell id="I1D86H4Sef8vusSO4HLG-32" style="edgeStyle=orthogonalEdgeStyle;rounded=0;orthogonalLoop=1;jettySize=auto;html=1;exitX=0.5;exitY=1;exitDx=0;exitDy=0;entryX=0.5;entryY=0;entryDx=0;entryDy=0;" parent="1" source="I1D86H4Sef8vusSO4HLG-14" target="I1D86H4Sef8vusSO4HLG-26" edge="1">
          <mxGeometry relative="1" as="geometry" />
        </mxCell>
        <mxCell id="I1D86H4Sef8vusSO4HLG-14" value="Approve to deploy stage" style="rounded=0;whiteSpace=wrap;html=1;" parent="1" vertex="1">
          <mxGeometry x="-300" y="300" width="210" height="30" as="geometry" />
        </mxCell>
        <mxCell id="I1D86H4Sef8vusSO4HLG-25" style="edgeStyle=orthogonalEdgeStyle;rounded=0;orthogonalLoop=1;jettySize=auto;html=1;exitX=0.5;exitY=1;exitDx=0;exitDy=0;entryX=0.5;entryY=0;entryDx=0;entryDy=0;" parent="1" source="I1D86H4Sef8vusSO4HLG-26" target="I1D86H4Sef8vusSO4HLG-29" edge="1">
          <mxGeometry relative="1" as="geometry" />
        </mxCell>
        <mxCell id="I1D86H4Sef8vusSO4HLG-26" value="Deploy to Stage" style="rounded=0;whiteSpace=wrap;html=1;fillColor=#cce5ff;strokeColor=#36393d;" parent="1" vertex="1">
          <mxGeometry x="-300" y="560" width="210" height="30" as="geometry" />
        </mxCell>
        <mxCell id="I1D86H4Sef8vusSO4HLG-28" style="edgeStyle=orthogonalEdgeStyle;rounded=0;orthogonalLoop=1;jettySize=auto;html=1;exitX=0.5;exitY=1;exitDx=0;exitDy=0;entryX=0.5;entryY=0;entryDx=0;entryDy=0;" parent="1" source="I1D86H4Sef8vusSO4HLG-29" target="I1D86H4Sef8vusSO4HLG-31" edge="1">
          <mxGeometry relative="1" as="geometry" />
        </mxCell>
        <mxCell id="I1D86H4Sef8vusSO4HLG-29" value="Approve mark config as prod" style="rounded=0;whiteSpace=wrap;html=1;" parent="1" vertex="1">
          <mxGeometry x="-300" y="615" width="210" height="30" as="geometry" />
        </mxCell>
        <mxCell id="I1D86H4Sef8vusSO4HLG-30" value="refresh config&amp;nbsp;- use same version&amp;nbsp;" style="rounded=0;whiteSpace=wrap;html=1;fillColor=#ffcccc;strokeColor=#36393d;" parent="1" vertex="1">
          <mxGeometry x="-300" y="780" width="210" height="30" as="geometry" />
        </mxCell>
        <mxCell id="I1D86H4Sef8vusSO4HLG-43" style="edgeStyle=orthogonalEdgeStyle;rounded=0;orthogonalLoop=1;jettySize=auto;html=1;exitX=0.5;exitY=1;exitDx=0;exitDy=0;entryX=0.5;entryY=0;entryDx=0;entryDy=0;dashed=1;" parent="1" source="I1D86H4Sef8vusSO4HLG-31" target="I1D86H4Sef8vusSO4HLG-42" edge="1">
          <mxGeometry relative="1" as="geometry" />
        </mxCell>
        <mxCell id="I1D86H4Sef8vusSO4HLG-31" value="+ tag PROD at current master" style="rounded=0;whiteSpace=wrap;html=1;" parent="1" vertex="1">
          <mxGeometry x="-300" y="670" width="210" height="30" as="geometry" />
        </mxCell>
        <mxCell id="I1D86H4Sef8vusSO4HLG-33" value="Deploy to feature ns on DEV" style="rounded=0;whiteSpace=wrap;html=1;fillColor=#ffff88;strokeColor=#36393d;" parent="1" vertex="1">
          <mxGeometry x="-623" y="480" width="210" height="30" as="geometry" />
        </mxCell>
        <mxCell id="I1D86H4Sef8vusSO4HLG-44" style="edgeStyle=orthogonalEdgeStyle;rounded=0;orthogonalLoop=1;jettySize=auto;html=1;exitX=0.5;exitY=1;exitDx=0;exitDy=0;entryX=0.5;entryY=0;entryDx=0;entryDy=0;" parent="1" source="I1D86H4Sef8vusSO4HLG-42" target="I1D86H4Sef8vusSO4HLG-30" edge="1">
          <mxGeometry relative="1" as="geometry" />
        </mxCell>
        <mxCell id="I1D86H4Sef8vusSO4HLG-42" value="Approve refresh config prod" style="rounded=0;whiteSpace=wrap;html=1;" parent="1" vertex="1">
          <mxGeometry x="-300" y="720" width="210" height="30" as="geometry" />
        </mxCell>
        <mxCell id="M2VELBqO5IjSqYguNmJB-6" style="edgeStyle=orthogonalEdgeStyle;rounded=0;orthogonalLoop=1;jettySize=auto;html=1;exitX=0.5;exitY=1;exitDx=0;exitDy=0;entryX=0.5;entryY=0;entryDx=0;entryDy=0;" edge="1" parent="1" source="M2VELBqO5IjSqYguNmJB-4" target="PSYIGVpPT2Qj7c6pXOUl-52">
          <mxGeometry relative="1" as="geometry" />
        </mxCell>
        <mxCell id="M2VELBqO5IjSqYguNmJB-4" value="Approve deploy stage" style="rounded=0;whiteSpace=wrap;html=1;" vertex="1" parent="1">
          <mxGeometry x="61" y="430" width="205" height="30" as="geometry" />
        </mxCell>
      </root>
    </mxGraphModel>
  </diagram>
</mxfile>
